<svg id="Layer_1" data-name="Layer 1" xmlns="http://www.w3.org/2000/svg" viewBox="0 0 143 23"><defs><style>.cls-1{fill:#ea4224;}.cls-2{fill:#fff;}</style></defs><title>Artboard 1</title><rect class="cls-1" x="13.62" y="1.51" width="2.96" height="2.96" rx="0.15"/><rect class="cls-1" x="13.62" y="5.72" width="2.96" height="2.96" rx="0.15"/><rect class="cls-1" x="13.62" y="9.93" width="2.96" height="2.96" rx="0.15"/><rect class="cls-1" x="9.41" y="1.51" width="2.96" height="2.96" rx="0.15"/><rect class="cls-1" x="9.41" y="5.72" width="2.96" height="2.96" rx="0.15"/><rect class="cls-1" x="9.41" y="9.93" width="2.96" height="2.96" rx="0.15"/><rect class="cls-1" x="5.21" y="1.51" width="2.96" height="2.96" rx="0.15"/><rect class="cls-1" x="5.21" y="9.93" width="2.96" height="2.96" rx="0.15"/><rect class="cls-1" x="1" y="1.51" width="2.96" height="2.96" rx="0.15"/><rect class="cls-1" x="1" y="5.72" width="2.96" height="2.96" rx="0.15"/><rect class="cls-1" x="1" y="9.93" width="2.96" height="2.96" rx="0.15"/><rect class="cls-1" x="13.62" y="14.14" width="2.96" height="2.96" rx="0.15"/><rect class="cls-1" x="1" y="14.14" width="2.96" height="2.96" rx="0.15"/><rect class="cls-1" x="5.21" y="14.14" width="2.96" height="2.96" rx="0.15"/><rect class="cls-1" x="9.41" y="14.14" width="2.96" height="2.96" rx="0.15"/><path class="cls-2" d="M22.18,1.51h2.87a.15.15,0,0,1,.15.15v12.8H32a.15.15,0,0,1,.15.15V17a.15.15,0,0,1-.15.15H22.18A.15.15,0,0,1,22,17V1.66A.15.15,0,0,1,22.18,1.51Z"/><path class="cls-2" d="M32.86,11.4c0-3.31,2.24-6,5.51-6,3.55,0,5.47,2.77,5.52,6.68a.15.15,0,0,1-.15.15h-8C36,14,37,15.14,38.63,15.14a2.1,2.1,0,0,0,2.13-1.28.13.13,0,0,1,.13-.09h2.64a.14.14,0,0,1,.14.17,4.81,4.81,0,0,1-5,3.49C35,17.43,32.86,14.74,32.86,11.4Zm3-1.2h5a2.44,2.44,0,0,0-2.37-2.49C36.85,7.71,36.08,8.74,35.82,10.2Z"/><path class="cls-2" d="M48.28,7.25a3.72,3.72,0,0,1,3.37-1.83A3.85,3.85,0,0,1,55.51,9.6V17a.14.14,0,0,1-.14.15H52.69a.14.14,0,0,1-.14-.15V10a1.86,1.86,0,0,0-1.94-2,2.33,2.33,0,0,0-2.27,2.57V17a.14.14,0,0,1-.14.15H45.52a.14.14,0,0,1-.14-.15V5.87a.15.15,0,0,1,.14-.15h2.61a.15.15,0,0,1,.15.15Z"/><path class="cls-2" d="M57,11.42c0-3.49,2-6,4.78-6A3.66,3.66,0,0,1,65,7.07V1.66a.15.15,0,0,1,.15-.15h2.67c.08,0,.15.07.15-.05v15.3c0,.28-.07.34-.15.34H65.26a.15.15,0,0,1-.15-.15V15.64a3.79,3.79,0,0,1-3.38,1.79C58.92,17.43,57,15,57,11.42Zm8.07.07c0-2.14-.7-3.68-2.6-3.68C60.84,7.81,60,9.35,60,11.42s.85,3.52,2.38,3.52C64.15,14.94,65.07,13.54,65.07,11.49Z"/><path class="cls-2" d="M70,5.72h2.67a.15.15,0,0,1,.15.15V17a.15.15,0,0,1-.15.15H70A.14.14,0,0,1,69.9,17V5.87A.15.15,0,0,1,70,5.72Z"/><path class="cls-2" d="M77.68,7.25a3.73,3.73,0,0,1,3.38-1.83c2.31,0,3.85,1.74,3.85,4.18V17a.14.14,0,0,1-.14.15H82.09A.14.14,0,0,1,82,17V10A1.86,1.86,0,0,0,80,8a2.33,2.33,0,0,0-2.27,2.57V17a.14.14,0,0,1-.14.15H74.92a.14.14,0,0,1-.14-.15V5.87a.15.15,0,0,1,.14-.15h2.61a.15.15,0,0,1,.15.15Z"/><path class="cls-2" d="M98.74,9.36c0-4.62,2.88-8.15,7.48-8.15,3.76,0,6,2.2,6.41,5.09a.14.14,0,0,1-.15.16h-2.85a.14.14,0,0,1-.14-.11,3.08,3.08,0,0,0-3.27-2.48c-2.88,0-4.25,2.4-4.25,5.49s1.65,5.47,4.27,5.47a3.14,3.14,0,0,0,3.34-2.62.14.14,0,0,1,.14-.12h2.81a.14.14,0,0,1,.15.15A5.49,5.49,0,0,1,111,15.77a6.6,6.6,0,0,1-4.73,1.66C101.86,17.43,98.74,14.05,98.74,9.36Z"/><path class="cls-2" d="M114.47,1.51h2.68a.15.15,0,0,1,.14.15V17a.14.14,0,0,1-.14.15h-2.68a.14.14,0,0,1-.14-.15V1.66A.15.15,0,0,1,114.47,1.51Z"/><path class="cls-2" d="M126.52,17.1a.15.15,0,0,1-.15-.15V15.79a3.69,3.69,0,0,1-3.27,1.62c-2.48,0-3.88-1.6-3.88-4V5.87a.15.15,0,0,1,.15-.15H122a.15.15,0,0,1,.14.15v7c0,1.31.59,2,1.86,2a2.26,2.26,0,0,0,2.24-2.53V5.87a.15.15,0,0,1,.15-.15h2.67a.15.15,0,0,1,.15.15V17a.15.15,0,0,1-.15.15Z"/><path class="cls-2" d="M134,15.71V17a.14.14,0,0,1-.14.15H131.3c-.08,0-.14-.06-.14-.34V1.46c0,.12.06.05.14.05H134a.15.15,0,0,1,.15.15V7.07a3.61,3.61,0,0,1,3.18-1.65c2.81,0,4.82,2.51,4.82,6s-1.92,6-4.73,6A3.82,3.82,0,0,1,134,15.71Zm5.1-4.29c0-2.07-.83-3.61-2.48-3.61-1.88,0-2.58,1.61-2.58,3.68s1,3.45,2.69,3.45S139.11,13.58,139.11,11.42Z"/><rect class="cls-1" x="69.9" y="1.51" width="2.96" height="2.96" rx="0.15"/><path class="cls-2" d="M97.11,5.72H94.54a.15.15,0,0,0-.14.15V7.14A3.79,3.79,0,0,0,91,5.42c-2.81,0-4.62,2.56-4.62,6s1.89,5.68,4.7,5.68a3.62,3.62,0,0,0,3.23-1.73v1.84c0,1.53-.81,2.34-2.48,2.34a2.14,2.14,0,0,1-2.21-1.27.15.15,0,0,0-.14-.09H86.83a.14.14,0,0,0-.14.17c.37,2.07,2.23,3.43,5.2,3.43a5.85,5.85,0,0,0,4-1.26,4.34,4.34,0,0,0,1.33-3.4V5.87A.15.15,0,0,0,97.11,5.72Zm-5.33,8.9c-1.58,0-2.37-1.4-2.37-3.37s.81-3.44,2.26-3.44,2.55,1.43,2.55,3.38S93.56,14.62,91.78,14.62Z"/></svg>