<svg width="195" height="29" viewBox="0 0 195 29" xmlns="http://www.w3.org/2000/svg" xmlns:xlink="http://www.w3.org/1999/xlink"><defs><path id="a" d="M19.406.124H.154v22.611h19.252V.125z"/><path id="c" d="M.17 22.837h14.984V.008H.17v22.83z"/></defs><g fill="none" fill-rule="evenodd"><path d="M17.633.607h3.693c.111 0 .2.09.2.202v3.728c0 .112-.089.203-.2.203h-3.693c-.11 0-.2-.09-.2-.203V.81c0-.112.09-.202.2-.202M17.633 6.472h3.693c.111 0 .2.09.2.203v3.728c0 .112-.089.203-.2.203h-3.693c-.11 0-.2-.091-.2-.203V6.675c0-.112.09-.203.2-.203M17.633 12.338h3.693c.111 0 .2.09.2.202v3.728c0 .112-.089.203-.2.203h-3.693c-.11 0-.2-.09-.2-.203V12.54c0-.112.09-.202.2-.202M11.822.607h3.694c.11 0 .2.09.2.202v3.728c0 .112-.09.203-.2.203h-3.694c-.11 0-.2-.09-.2-.203V.81c0-.112.09-.202.2-.202M11.822 6.472h3.694c.11 0 .2.09.2.203v3.728c0 .112-.09.203-.2.203h-3.694c-.11 0-.2-.091-.2-.203V6.675c0-.112.09-.203.2-.203M11.822 12.338h3.694c.11 0 .2.09.2.202v3.728c0 .112-.09.203-.2.203h-3.694c-.11 0-.2-.09-.2-.203V12.54c0-.112.09-.202.2-.202M6.011.607h3.694c.11 0 .2.09.2.202v3.728c0 .112-.09.203-.2.203H6.01c-.11 0-.2-.09-.2-.203V.81c0-.112.09-.202.2-.202M6.011 12.338h3.694c.11 0 .2.09.2.202v3.728c0 .112-.09.203-.2.203H6.01c-.11 0-.2-.09-.2-.203V12.54c0-.112.09-.202.2-.202M.2.607h3.694c.11 0 .2.09.2.202v3.728c0 .112-.09.203-.2.203H.201C.09 4.74 0 4.65 0 4.537V.81C0 .697.09.607.2.607M.2 6.472h3.694c.11 0 .2.09.2.203v3.728c0 .112-.09.203-.2.203H.201c-.111 0-.201-.091-.201-.203V6.675c0-.112.09-.203.2-.203M.2 12.338h3.694c.11 0 .2.09.2.202v3.728c0 .112-.09.203-.2.203H.201c-.111 0-.201-.09-.201-.203V12.54c0-.112.09-.202.2-.202M17.633 18.203h3.693c.111 0 .2.091.2.203v3.728c0 .112-.089.203-.2.203h-3.693c-.11 0-.2-.091-.2-.203v-3.728c0-.112.09-.203.2-.203M0 22.134v-3.728c0-.112.09-.203.2-.203h3.694c.11 0 .2.09.2.203v3.728c0 .112-.09.203-.2.203H.2c-.111 0-.201-.091-.201-.203M5.81 22.134v-3.728c0-.112.09-.203.202-.203h3.693c.11 0 .2.09.2.203v3.728c0 .112-.09.203-.2.203H6.012c-.111 0-.201-.091-.201-.203M11.622 22.134v-3.728c0-.112.09-.203.2-.203h3.693c.111 0 .201.09.201.203v3.728c0 .112-.09.203-.2.203h-3.694c-.11 0-.2-.091-.2-.203" fill="#E94124"/><path d="M29.254.607h3.964c.111 0 .201.09.201.202v17.85h9.445c.11 0 .2.09.2.203v3.272c0 .112-.09.202-.2.202h-13.61c-.11 0-.2-.09-.2-.202V.809c0-.112.09-.202.2-.202M48.097 12.718h6.864c-.12-1.976-1.415-3.48-3.282-3.48-2.167 0-3.221 1.443-3.582 3.48m-4.095 1.671c0-4.62 3.101-8.342 7.617-8.342 4.906 0 7.551 3.871 7.616 9.32a.205.205 0 0 1-.202.207H48.037c.3 2.401 1.625 4.027 3.944 4.027 1.538 0 2.461-.678 2.93-1.789a.2.2 0 0 1 .184-.125h3.647c.13 0 .228.123.196.25-.664 2.655-3.074 4.855-6.927 4.855-5.119 0-8.009-3.753-8.009-8.403M65.298 8.6c1.054-1.672 2.559-2.553 4.667-2.553 3.19 0 5.329 2.431 5.329 5.835v10.252c0 .112-.09.202-.201.202H71.4c-.111 0-.2-.09-.2-.202V12.49c0-1.672-.964-2.857-2.68-2.857-1.807 0-3.132 1.459-3.132 3.586v8.915c0 .112-.09.202-.2.202h-3.694c-.11 0-.2-.09-.2-.202V6.675c0-.112.09-.203.2-.203h3.603c.111 0 .2.091.2.203V8.6zM88.49 14.51c0-2.978-.963-5.12-3.582-5.12-2.258 0-3.403 2.142-3.403 5.03 0 3.008 1.175 4.908 3.282 4.908 2.439 0 3.703-1.96 3.703-4.817m-11.14-.091c0-4.863 2.74-8.373 6.594-8.373 2.168 0 3.613 1.003 4.456 2.31V.808c0-.111.09-.202.2-.202h3.694c.11 0 .2.09.2-.071V21.86c0 .386-.09.476-.2.476h-3.543c-.11 0-.2-.09-.2-.202V20.3c-.904 1.49-2.5 2.492-4.667 2.492-3.884 0-6.533-3.327-6.533-8.372M95.36 6.472h3.693c.111 0 .201.09.201.203v15.459c0 .112-.09.203-.2.203H95.36c-.11 0-.2-.091-.2-.203V6.674c0-.111.09-.202.2-.202M105.908 8.6c1.053-1.672 2.559-2.553 4.666-2.553 3.192 0 5.33 2.431 5.33 5.835v10.252c0 .112-.09.202-.201.202h-3.694c-.11 0-.2-.09-.2-.202V12.49c0-1.672-.964-2.857-2.68-2.857-1.806 0-3.131 1.459-3.131 3.586v8.915c0 .112-.09.202-.2.202h-3.694c-.11 0-.2-.09-.2-.202V6.675c0-.112.09-.203.2-.203h3.603c.11 0 .2.091.2.203V8.6z" fill="#103B5E"/><g transform="translate(134.848 .057)"><mask id="b" fill="#fff"><use xlink:href="#a"/></mask><path d="M.154 11.49C.154 5.048 4.128.124 10.48.124c5.2 0 8.312 3.074 8.853 7.095a.204.204 0 0 1-.2.23H15.19a.2.2 0 0 1-.195-.163c-.441-2.096-2.048-3.454-4.514-3.454-3.975 0-5.871 3.343-5.871 7.658 0 4.438 2.288 7.629 5.9 7.629 2.494 0 4.273-1.472 4.613-3.656a.2.2 0 0 1 .197-.174h3.884c.117 0 .212.102.201.22a7.715 7.715 0 0 1-2.36 4.917c-1.476 1.398-3.554 2.31-6.534 2.31C4.459 22.735.154 18.024.154 11.49" fill="#103B5E" mask="url(#b)"/></g><path d="M156.73.607h3.693c.111 0 .201.09.201.202v21.325c0 .112-.09.202-.2.202h-3.694c-.11 0-.2-.09-.2-.202V.809c0-.112.09-.202.2-.202M173.365 22.336c-.111 0-.201-.09-.201-.202v-1.62c-1.054 1.428-2.348 2.248-4.516 2.248-3.432 0-5.36-2.219-5.36-5.622V6.675c0-.112.09-.203.201-.203h3.664c.11 0 .2.091.2.203v9.766c0 1.823.813 2.826 2.56 2.826 1.926 0 3.1-1.459 3.1-3.525V6.675c0-.112.09-.203.201-.203h3.693c.111 0 .201.091.201.203v15.459c0 .112-.09.202-.2.202h-3.543zM190.762 14.42c0-2.888-1.144-5.03-3.432-5.03-2.59 0-3.553 2.233-3.553 5.12 0 2.857 1.415 4.818 3.703 4.818 2.108 0 3.282-1.9 3.282-4.909m-7.045 5.972v1.743c0 .112-.09.202-.2.202h-3.543c-.111 0-.201-.09-.201-.476V.536c0 .162.09.07.2.07h3.694c.11 0 .2.092.2.203v7.547c.844-1.306 2.259-2.31 4.396-2.31 3.884 0 6.654 3.51 6.654 8.373 0 5.045-2.65 8.373-6.533 8.373-2.168 0-3.764-.942-4.667-2.4" fill="#103B5E"/><path d="M95.36.607h3.693c.111 0 .201.09.201.202v3.728c0 .112-.09.203-.2.203H95.36c-.11 0-.2-.09-.2-.203V.81c0-.112.09-.202.2-.202" fill="#E94124"/><g transform="translate(117.79 6.038)"><mask id="d" fill="#fff"><use xlink:href="#c"/></mask><path d="M7.59 12.833c-2.176 0-3.265-1.939-3.265-4.685 0-2.862 1.117-4.796 3.122-4.796 2.176 0 3.522 1.992 3.522 4.71 0 2.745-.916 4.771-3.379 4.771M14.954.434H11.41c-.11 0-.2.09-.2.203v1.772C10.306.951 8.71.01 6.543.01 2.66.008.17 3.578.17 8.38c0 4.695 2.61 7.917 6.494 7.917 2.138 0 3.556-.988 4.456-2.408v2.565c0 2.128-1.114 3.252-3.432 3.252-1.811 0-2.69-.855-3.053-1.764a.202.202 0 0 0-.186-.13H.759a.203.203 0 0 0-.2.237c.522 2.897 3.085 4.788 7.189 4.788 2.288 0 4.275-.548 5.57-1.763 1.144-1.064 1.836-2.553 1.836-4.741V.637a.202.202 0 0 0-.2-.203" fill="#103B5E" mask="url(#d)"/></g></g></svg>